<?xml version="1.0" encoding="UTF-8"?><svg id="Layer_1" xmlns="http://www.w3.org/2000/svg" viewBox="0 0 64 64"><g id="Hello"><path d="m57.39404297,27.08105469l-.34179688-.14648438c-4.17724609-1.79052734-9.03369141.15136719-10.82470703,4.32958984l-.42919922,1.00146484,2.17919922-18.85351562c.01220703-.14404297.02246094-.27734375.02246094-.421875,0-2.02148438-1.5234375-3.72558594-3.54492188-3.96337891-1.05957031-.12402344-2.10400391.17529297-2.94091797.83984375-.83691406.66503906-1.36523438,1.61621094-1.48730469,2.67822266l-1.69580078,14.64941406c-.04052734.34814453-.21679688.65576172-.49707031.86669922-.28125.2109375-.62792969.29541016-.97167969.23681641-.57421875-.09667969-1.00732422-.56982422-1.05224609-1.15136719l-1.82275391-23.45263672c-.15869141-2.07128906-1.90576172-3.69384766-3.97753906-3.69384766-.11962891,0-.24023438.00244141-.31835938.01269531-2.20117188.17431641-3.8515625,2.10107422-3.67871094,4.29492188l1.74609375,22.48632812c.02929688.37646484-.18457031.72900391-.53125.87792969-.23730469.10107422-.49560547.09619141-.72900391-.01611328-.23242188-.11181641-.3984375-.31054688-.46728516-.55957031l-4.17822266-15.16601562c-.48388672-1.72509766-2.06787109-2.93017578-3.85302734-2.93017578-.33300781,0-.68652344.04785156-1.06640625.14599609-2.12158203.58691406-3.37255859,2.79345703-2.78759766,4.91943359l4.84521484,17.59130859c.07519531.27246094-.01660156.56542969-.23339844.74658203-.17578125.14648438-.40478516.20166016-.62792969.14892578-.22363281-.05224609-.40429688-.20263672-.49658203-.41259766l-2.97021484-6.75732422c-.64599609-1.44726562-2.08789062-2.38232422-3.67285156-2.38232422-.55371094,0-1.09179688.11230469-1.60595703.3359375-2.00683594.890625-2.92724609,3.25585938-2.05712891,5.25878906l9.55761719,22.93017578c.84130859,2.01904297,2.17480469,3.82666016,3.85546875,5.2265625l.45214844.37695312c1.90820312,1.59033203,3.23486328,3.70458984,3.83740234,6.11425781.11132812.44483004.51123047.75732422.97021484.75732422h23c.29394531,0,.57324219-.12939453.76318359-.35351562.18994141-.22460938.27148438-.52099609.22314453-.81103516l-1.1171875-6.703125c-.48730469-2.92382812.60791016-5.93896484,2.85888672-7.86767578,2.07763672-1.78125,3.38867188-4.26025391,3.69091797-6.98046875l.56738281-5.10693359,1.98388672-7.93457031c.11914062-.47607422-.125-.96826172-.57617188-1.16162109Z" style="fill:#ffe4d9; stroke-width:0px;"/><path d="m46.34997559,27.47998047l-.54998779,4.7800293-2.2199707,5.17999268c-.14001465.34002686-.47003174.57000732-.84002686.59997559-4.79998779.35003662-9.05999756,3.08001709-11.39996338,7.2800293l-1.21002197,2.19000244c-.19000244.33001709-.5300293.52001953-.88000488.52001953-.15997314,0-.33001709-.04003906-.47998047-.13000488-.48999023-.27001953-.66003418-.86999512-.39001465-1.36004639l1.2199707-2.19000244c2.55999756-4.61999512,7.16003418-7.66998291,12.38000488-8.25l2.41003418-5.61999512c.47998047-1.11999512,1.14996338-2.13995361,1.95996094-3Z" style="fill:#fcd4ca; stroke-width:0px;"/></g></svg>